<svg xmlns="http://www.w3.org/2000/svg" viewBox="0 0 144.7 56.88"><defs><style>.cls-1{fill:#81c5bf;}.cls-2{fill:#fff;}.cls-3{fill:#f7c96b;}.cls-4{fill:#ef8a8a;}</style></defs><title>logo</title><g id="Layer_2" data-name="Layer 2"><g id="圖層_6" data-name="圖層 6"><rect class="cls-1" width="15.36" height="9.56" rx="4.78" ry="4.78"/><rect class="cls-1" x="102.84" width="41.86" height="9.56" rx="4.78" ry="4.78"/><rect class="cls-1" x="98.06" y="20.19" width="41.86" height="9.56" rx="4.78" ry="4.78" transform="translate(94.02 143.96) rotate(-90)"/><rect class="cls-1" x="112.08" y="23.11" width="55.68" height="9.56" rx="4.78" ry="4.78" transform="translate(112.03 167.81) rotate(-90)"/><rect class="cls-1" y="23.4" width="15.36" height="9.56" rx="4.78" ry="4.78"/><rect class="cls-1" y="47.33" width="15.36" height="9.56" rx="4.78" ry="4.78"/><rect class="cls-1" x="19.4" y="47.33" width="50.98" height="9.56" rx="4.78" ry="4.78"/><rect class="cls-1" x="27.39" y="28.18" width="35" height="26.74" rx="4.33" ry="4.33"/><rect class="cls-1" x="29.82" width="29.19" height="24.97" rx="4.33" ry="4.33"/><rect class="cls-2" x="33.67" y="31.02" width="21.56" height="17.15" rx="2.63" ry="2.63"/><path class="cls-3" d="M43.61,8.14,34.68,19.31a1,1,0,0,0,.8,1.67H53.34a1,1,0,0,0,.8-1.67L45.22,8.14A1,1,0,0,0,43.61,8.14Z"/><rect class="cls-4" x="44.92" y="40.29" width="4.75" height="3.57" rx="0.39" ry="0.39"/><rect class="cls-4" x="38.8" y="40.29" width="4.75" height="3.57" rx="0.39" ry="0.39"/><rect class="cls-4" x="38.8" y="35.32" width="4.75" height="3.57" rx="0.39" ry="0.39"/><rect class="cls-4" x="44.92" y="35.32" width="4.75" height="3.57" rx="0.39" ry="0.39"/><rect class="cls-1" x="77.5" y="11.34" width="24.67" height="30.73" rx="12.33" ry="12.33"/><rect class="cls-2" x="84.34" y="19.06" width="11" height="15.26" rx="5.5" ry="5.5"/><path class="cls-2" d="M95.93,34.26l-1.3-3.59a.27.27,0,0,0-.45-.1L91.9,32.86a.27.27,0,0,0,.1.45l3.58,1.3A.27.27,0,0,0,95.93,34.26Z"/></g></g></svg>