<svg xmlns="http://www.w3.org/2000/svg" viewBox="0 0 302.5 302.5"><defs><style>.cls-1{fill:#fef8f5;}.cls-2{fill:#8ac4c4;}.cls-3{fill:#f8cc73;}.cls-4{fill:#eb6662;}.cls-5{fill:#fff;}.cls-6{fill:#3f254e;}</style></defs><title>Asset 9</title><g id="Layer_2" data-name="Layer 2"><g id="Layer_11" data-name="Layer 11"><rect class="cls-1" width="302.5" height="302.5" rx="37.84" ry="37.84"/></g><g id="Layer_30" data-name="Layer 30"><path class="cls-2" d="M222.11,118.35s45.36,85.7,29.78,110.87S182,265.38,182,265.38s-12.67,7.26-19.58-15.23,30.2-23.32,30.2-23.32l-3.18-94.66Z"/><path class="cls-2" d="M80,120.71S34.68,205.42,50.26,230.59s69.85,36.15,69.85,36.15,12.68,7.27,19.58-15.23-30.2-22.32-30.2-22.32l3.18-93.66Z"/><ellipse class="cls-2" cx="152.47" cy="154.42" rx="70.03" ry="23.43"/></g><g id="Layer_8" data-name="Layer 8"><path class="cls-1" d="M193.76,173.2l-42.51-22.82L108.74,173.2l-4.17,50.91a10.13,10.13,0,0,0,10.12,10.12h73.12a10.13,10.13,0,0,0,10.12-10.12Z"/></g><g id="Layer_6" data-name="Layer 6"><rect class="cls-3" x="134.83" y="188.24" width="13.09" height="13.09"/><rect class="cls-3" x="154.57" y="188.24" width="13.09" height="13.09"/><rect class="cls-3" x="134.83" y="205.4" width="13.09" height="13.09"/><rect class="cls-3" x="154.57" y="205.4" width="13.09" height="13.09"/></g><g id="Layer_32" data-name="Layer 32"><path class="cls-2" d="M92.34,71.3s-21.07,51.45-9.9,61.45c11.55,10.32,61.68,30.33,141.72-10.57,0,0-13.89-62.67-20.62-64S94.2,54,93.53,56.72,92.34,71.3,92.34,71.3Z"/><path class="cls-4" d="M81,73.12s-.16-38.28,41.39-40.33c0,0,.67,1.69,7.15-2.84S153.85,8.76,177,32.76c0,0,31.82-4.41,37.83,37.76,0,0-5.66.81-18.32-6.34,0,0-16.74,18.34-43.14,6.25,0,0-30.26,14-47-6.37a51.26,51.26,0,0,1-14,7.24A34.74,34.74,0,0,1,81,73.12Z"/><ellipse class="cls-5" cx="121.8" cy="103.3" rx="11.87" ry="11.18" transform="translate(-4.03 4.95) rotate(-2.29)"/><circle class="cls-6" cx="121.8" cy="103.3" r="4.9"/><ellipse class="cls-5" cx="178.65" cy="101.03" rx="11.87" ry="11.18" transform="translate(-3.9 7.22) rotate(-2.29)"/><circle class="cls-6" cx="178.65" cy="101.03" r="4.9"/><path class="cls-4" d="M133.21,116s22.27,2.54,30-2c0,0,7.54,4.6.39,9.8s-28.17,2.5-31.22,0S132.71,116,133.21,116Z"/></g></g></svg>