<svg xmlns="http://www.w3.org/2000/svg" viewBox="0 0 153 144"><defs><style>.cls-1{fill:#f4f187;}.cls-2{fill:none;stroke:#000;stroke-miterlimit:10;stroke-width:2px;}</style></defs><title>Angry</title><g id="Layer_2" data-name="Layer 2"><g id="Layer_3" data-name="Layer 3"><path class="cls-1" d="M.7,40.06C1,29,11.8,13.64,21.42,8.85A81.35,81.35,0,0,1,62.05.12C94.71,2,124.28,11.65,129.42,18.49c12.36,16.45,17.88,19.72,20,34.63,3.26,22.69,5.7,48.32.69,59.36-5.73,12.61-19.23,37.51-51.89,30.2s-67.73-7.25-78.32-21S5.12,110.83.7,85.51C-.78,77,.53,47.42.7,40.06Z"/></g><g id="Layer_4" data-name="Layer 4"><circle cx="43.14" cy="69.14" r="5.52"/><circle cx="80.36" cy="69.14" r="5.52"/></g><g id="Layer_6" data-name="Layer 6"><path d="M51.8,94.75c1.11-5.35,8.14-7.15,12.89-5.88,3.08.82,4.83,3.22,6.1,5.95,1.75,3.8-2.42,3.48-4.64,1.91-2-1.46-3.9-2.92-6.52-2.84-2.32.07-6.8,3.51-8,.7-.75-1.77-3.34-.24-2.59,1.52s1.79,3.29,3.86,3.26c1.32,0,2.41-1,3.59-1.41,3.39-1.17,5.5-.52,8.13,1.36,3,2.13,10,3.63,10-2.21,0-5.63-5.71-10.8-10.92-11.45-6-.75-13.47,1.78-14.81,8.29-.39,1.88,2.5,2.69,2.89.8Z"/><path d="M34.44,53.56a23.91,23.91,0,0,0,8.09,5.79c.92.35,2.41.88,3.41.5a1.51,1.51,0,0,0-.39-3h0c-1.93-.11-1.92,2.89,0,3h0L45.15,57c.55-.21.05,0-.31-.05s-1.05-.27-1.49-.44a21.5,21.5,0,0,1-6.79-5,1.5,1.5,0,0,0-2.12,2.12Z"/><path d="M87.2,51.74c-1,1.55-1.91,4-3.6,4.89-1.95,1.07-5,.71-7.1.81-1.93.09-1.94,3.09,0,3,2.7-.13,6.15.16,8.62-1.22,2.2-1.23,3.41-3.9,4.68-6,1-1.65-1.59-3.16-2.6-1.52Z"/><ellipse class="cls-2" cx="61.5" cy="77" rx="3.5" ry="4"/></g></g></svg>