<svg xmlns="http://www.w3.org/2000/svg" viewBox="0 0 153 144"><defs><style>.cls-1{fill:#f4f187;}.cls-2{fill:none;stroke:#000;stroke-miterlimit:10;stroke-width:2px;}</style></defs><title>Confused</title><g id="Layer_2" data-name="Layer 2"><g id="Layer_3" data-name="Layer 3"><path class="cls-1" d="M.7,40.06C1,29,11.8,13.64,21.42,8.85A81.35,81.35,0,0,1,62.05.12C94.71,2,124.28,11.65,129.42,18.49c12.36,16.45,17.88,19.72,20,34.63,3.26,22.69,5.7,48.32.69,59.36-5.73,12.61-19.23,37.51-51.89,30.2s-67.73-7.25-78.32-21S5.12,110.83.7,85.51C-.78,77,.53,47.42.7,40.06Z"/></g><g id="Layer_4" data-name="Layer 4"><circle cx="39.14" cy="63.14" r="5.52"/><circle cx="80.36" cy="63.14" r="5.52"/></g><g id="Layer_6" data-name="Layer 6"><ellipse class="cls-2" cx="59.5" cy="72" rx="3.5" ry="4"/><path d="M26.71,40.38a11.24,11.24,0,0,1,11.84-4.1,1.5,1.5,0,0,0,.8-2.89,14.15,14.15,0,0,0-14.76,4.87c-1.18,1.5.93,3.64,2.12,2.12Z"/><path d="M77.33,35.59a12.52,12.52,0,0,1,15-.42c1.6,1.1,3.1-1.5,1.52-2.59a15.39,15.39,0,0,0-18,.42c-1.51,1.15,0,3.76,1.51,2.59Z"/><path d="M55.37,110a43.15,43.15,0,0,1,17.27.67c1.87.46,2.68-2.44.8-2.89a47,47,0,0,0-18.87-.67c-1.9.31-1.09,3.2.8,2.89Z"/></g></g></svg>