<svg xmlns="http://www.w3.org/2000/svg" viewBox="0 0 153.46 135.26"><defs><style>.cls-1{fill:#efcd89;}.cls-2{fill:none;stroke:#000;stroke-miterlimit:10;stroke-width:2px;}</style></defs><title>Good</title><g id="Layer_2" data-name="Layer 2"><g id="Layer_3" data-name="Layer 3"><path class="cls-1" d="M0,67.89c2,24,3.61,34.2,15,54.52C26,142,98.6,135.56,117,126.77c16-7.63,40-42.53,36-65.42-3.58-20.47-23-41.44-51-56.71C80.85-6.89,42,5.86,24.26,12.78A21.53,21.53,0,0,0,11.82,26.42C7.52,39.74-.43,62.54,0,67.89Z"/></g><g id="Layer_4" data-name="Layer 4"><circle cx="56.16" cy="52.4" r="5.52"/><circle cx="96.38" cy="49.4" r="5.52"/></g><g id="Layer_6" data-name="Layer 6"><ellipse class="cls-2" cx="80.52" cy="62.26" rx="3.5" ry="4"/><path d="M60.64,73.17c-.27,4.74,3.81,10.53,7.24,13.59,4.18,3.71,10.27,3.93,15.58,3.51,13.13-1,16.53-11.55,18.06-23,.25-1.91-2.75-1.89-3,0-1.28,9.59-3.79,19-15.06,20-4.46.38-9.9.37-13.46-2.64-2.65-2.24-6.57-7.8-6.36-11.46.11-1.93-2.9-1.92-3,0Z"/></g></g></svg>