<svg xmlns="http://www.w3.org/2000/svg" viewBox="0 0 151.42 136"><defs><style>.cls-1{fill:#ed9c8a;}.cls-2{fill:none;stroke:#000;stroke-miterlimit:10;stroke-width:2px;}</style></defs><title>Happy</title><g id="Layer_2" data-name="Layer 2"><g id="Layer_3" data-name="Layer 3"><path class="cls-1" d="M16.28,17.16A31.9,31.9,0,0,1,32,6.28c12-3.83,33.14-8.86,52.92-4.73,29.7,6.2,58.77,15,63.64,33.07,3.5,13,4.25,34.11,0,48.59S128.36,138,106.08,135.92s-40.31-2.06-70-13.43C21.39,116.87-.36,76.26,0,55.3.21,43.72,8.84,26.86,16.28,17.16Z"/></g><g id="Layer_4" data-name="Layer 4"><circle cx="61.77" cy="45.14" r="5.52"/><circle cx="103" cy="45.14" r="5.52"/></g><g id="Layer_6" data-name="Layer 6"><ellipse class="cls-2" cx="83.14" cy="56" rx="3.5" ry="4"/><path d="M54.85,73.57c8.83,6,19.87,8.05,30.41,8.13,8.37.07,17.13-2.83,19.88-11.5l-3-.4c1,15-3.4,33.57-19.69,38.55C62,114.61,58.41,87.16,57.8,73.52c-.09-1.93-3.09-1.94-3,0,.65,14.68,4.64,42.15,25.72,38.39,19.43-3.46,25.81-25,24.67-42.11a1.5,1.5,0,0,0-2.94-.4c-3,9.41-13.91,9.73-22.08,9C71.7,77.71,63.48,75.79,56.36,71c-1.6-1.09-3.1,1.51-1.51,2.59Z"/></g></g></svg>