<svg xmlns="http://www.w3.org/2000/svg" viewBox="0 0 158.01 143.26"><defs><style>.cls-1{fill:#879cf4;}.cls-2{fill:none;stroke:#000;stroke-miterlimit:10;stroke-width:2px;}</style></defs><title>Not Good</title><g id="Layer_2" data-name="Layer 2"><g id="Layer_3" data-name="Layer 3"><path class="cls-1" d="M23.84,8.49c3.37-2.88,27.77-7.4,31.94-8,14.13-2,23.36,3,41.6,3.7C118,5,144.15,21.23,148,34.56s16,54.83,6.4,65.2S127.07,138.47,104,142.18s-69.86-2.46-81.39-13.57C14.84,121.11-.62,90.13,0,76.05.53,64.78-1.9,29.38,5.78,23.45,10.67,19.68,18.66,12.92,23.84,8.49Z"/></g><g id="Layer_4" data-name="Layer 4"><circle cx="50.15" cy="57.78" r="5.52"/><circle cx="91.37" cy="57.78" r="5.52"/></g><g id="Layer_6" data-name="Layer 6"><path d="M54,84.12,91,84a1.5,1.5,0,0,0,0-3l-37,.14a1.5,1.5,0,0,0,0,3Z"/><ellipse class="cls-2" cx="72.51" cy="67.64" rx="3.5" ry="4"/></g></g></svg>