<svg xmlns="http://www.w3.org/2000/svg" viewBox="0 0 151.42 136"><defs><style>.cls-1{fill:#ed9c8a;}.cls-2{fill:none;stroke:#000;stroke-miterlimit:10;stroke-width:2px;}</style></defs><title>Sad</title><g id="Layer_2" data-name="Layer 2"><g id="Layer_3" data-name="Layer 3"><path class="cls-1" d="M16.28,17.16A31.9,31.9,0,0,1,32,6.28c12-3.83,33.14-8.86,52.92-4.73,29.7,6.2,58.77,15,63.64,33.07,3.5,13,4.25,34.11,0,48.59S128.36,138,106.08,135.92s-40.31-2.06-70-13.43C21.39,116.87-.36,76.26,0,55.3.21,43.72,8.84,26.86,16.28,17.16Z"/></g><g id="Layer_4" data-name="Layer 4"><circle cx="61.77" cy="54.14" r="5.52"/><circle cx="102" cy="51.14" r="5.52"/></g><g id="Layer_6" data-name="Layer 6"><ellipse class="cls-2" cx="85.14" cy="64" rx="3.5" ry="4"/></g><g id="Layer_7" data-name="Layer 7"><path d="M75.18,84.6c5.73-9.41,17.18-9.69,23.16-.36,1,1.62,3.64.12,2.59-1.51-7.19-11.24-21.42-11-28.34.35a1.5,1.5,0,0,0,2.59,1.52Z"/><path d="M57.93,64a15,15,0,0,0-6.88,7.81c-.94,2.16-2.18,5.31-.17,7.28a2.81,2.81,0,0,0,4.61-.81,7.53,7.53,0,0,0,.31-4c-.21-2.41-.41-4.69.53-7,.48-1.19-1.46-1.71-1.93-.53a11.57,11.57,0,0,0-.81,4.73c0,.94.13,1.87.21,2.8.11,1.23.93,3.55-.87,1.68-1.24-1.28-.73-1.72-.09-3.23a20.57,20.57,0,0,1,1.31-2.56,11.56,11.56,0,0,1,4.79-4.43c1.15-.57.14-2.3-1-1.72Z"/></g></g></svg>