<svg xmlns="http://www.w3.org/2000/svg" viewBox="0 0 158.01 143.26"><defs><style>.cls-1{fill:#879cf4;}.cls-2{fill:none;stroke:#000;stroke-miterlimit:10;stroke-width:2px;}</style></defs><title>Shocked</title><g id="Layer_2" data-name="Layer 2"><g id="Layer_3" data-name="Layer 3"><path class="cls-1" d="M23.84,8.49c3.37-2.88,27.77-7.4,31.94-8,14.13-2,23.36,3,41.6,3.7C118,5,144.15,21.23,148,34.56s16,54.83,6.4,65.2S127.07,138.47,104,142.18s-69.86-2.46-81.39-13.57C14.84,121.11-.62,90.13,0,76.05.53,64.78-1.9,29.38,5.78,23.45,10.67,19.68,18.66,12.92,23.84,8.49Z"/></g><g id="Layer_4" data-name="Layer 4"><circle cx="56.15" cy="57.78" r="5.52"/><circle cx="97.37" cy="57.78" r="5.52"/></g><g id="Layer_6" data-name="Layer 6"><ellipse class="cls-2" cx="76.51" cy="67.64" rx="3.5" ry="4"/><path d="M71,80c-6.19,0-11.8,5.47-10.93,11.91,1.06,7.95,11.89,6.93,17.76,6.17,5.37-.7,14.61-4.63,12.58-11.68s-14.09-7.25-19.75-6.31c-1.9.32-1.1,3.21.8,2.89,3.91-.65,9.45-.76,13,1.53,5.34,3.46,1.1,8.16-2.74,9.62a20.4,20.4,0,0,1-5.34,1.11c-2.76.24-6.36.56-9-.18C58.43,92.6,64.86,83,71,83a1.5,1.5,0,0,0,0-3Z"/><path d="M47.67,40.81h8.67a1.5,1.5,0,0,0,0-3H47.67a1.5,1.5,0,0,0,0,3Z"/><path d="M95.67,37.48h6.67a1.5,1.5,0,0,0,0-3H95.67a1.5,1.5,0,0,0,0,3Z"/></g></g></svg>