<svg xmlns="http://www.w3.org/2000/svg" viewBox="0 0 153.46 135.26"><defs><style>.cls-1{fill:#efcd89;}.cls-2{fill:none;stroke:#000;stroke-miterlimit:10;stroke-width:2px;}</style></defs><title>What</title><g id="Layer_2" data-name="Layer 2"><g id="Layer_3" data-name="Layer 3"><path class="cls-1" d="M0,67.89c2,24,3.61,34.2,15,54.52C26,142,98.6,135.56,117,126.77c16-7.63,40-42.53,36-65.42-3.58-20.47-23-41.44-51-56.71C80.85-6.89,42,5.86,24.26,12.78A21.53,21.53,0,0,0,11.82,26.42C7.52,39.74-.43,62.54,0,67.89Z"/></g><g id="Layer_4" data-name="Layer 4"><circle cx="56.16" cy="52.4" r="5.52"/><circle cx="97.38" cy="52.4" r="5.52"/></g><g id="Layer_6" data-name="Layer 6"><ellipse class="cls-2" cx="76.52" cy="62.26" rx="3.5" ry="4"/><path d="M34.9,80.48c3.68,2.79,7.58,8,13,6.17,1.86-.65,2-2,3.3-3.15,5.44-4.76,5.74-.46,9.58,1.4,3.6,1.75,6.3-.22,8.7-2.84,3.12-3.41,6.76-4.16,10.15-.32,2.1,2.38,3.5,4.73,6.33,6.37a1.52,1.52,0,0,0,2-.54c1.17-2.37,2.71-5,5.1-6.27,2.69-1.48,3.23-.46,5,1.37,1.64,1.68,3.48,2.47,5.66,1.14A6.11,6.11,0,0,0,106,81.14c.19-.37.8-2.28.85-2.34l4.49-2.41,2.39,2.33c2.12,2.82,3,5.77,6.29,7.55a1.51,1.51,0,0,0,2.2-.89,8.39,8.39,0,0,1,7.56-6.92c1.91-.26,1.1-3.15-.79-2.9a11.16,11.16,0,0,0-9.66,9l2.21-.9c-4.51-2.46-4.94-9-10.23-10.6-3.64-1.13-5.84,1.11-7.13,4.26-.52,1.27-1.28,4.51-3.6,3.62-.67-.26-1.35-2-2-2.52a4.35,4.35,0,0,0-4-1.24c-4.09.75-7.43,5.42-9.13,8.85l2-.53c-4.62-2.69-6.56-9.64-12.55-10.08-4.67-.35-5.75,3.93-9,6.06-5.32,3.45-8.16-6.11-13.77-4.11-2.08.74-2,2.09-3.19,3.67-4.49,6.22-8.78-.38-12.46-3.17-1.54-1.17-3,1.44-1.52,2.59Z"/></g></g></svg>